<?xml version="1.0" encoding="iso-8859-1"?>
<!-- Generator: Adobe Illustrator 19.0.0, SVG Export Plug-In . SVG Version: 6.00 Build 0)  -->
<svg version="1.1" id="Layer_1" xmlns="http://www.w3.org/2000/svg" xmlns:xlink="http://www.w3.org/1999/xlink" x="0px" y="0px"
	 viewBox="0 0 469.333 469.333" style="enable-background:new 0 0 469.333 469.333;" xml:space="preserve">
<g>
	<g>
		<g>
			<path d="M384,42.667H42.667C19.135,42.667,0,61.812,0,85.333v341.333c0,23.521,19.135,42.667,42.667,42.667H384
				c23.531,0,42.667-19.146,42.667-42.667V85.333C426.667,61.812,407.531,42.667,384,42.667z M405.333,426.667
				C405.333,438.438,395.76,448,384,448H42.667c-11.76,0-21.333-9.563-21.333-21.333V85.333C21.333,73.562,30.906,64,42.667,64H384
				c11.76,0,21.333,9.563,21.333,21.333V426.667z" style="fill: white;"/>
			<path d="M426.667,0h-352C68.771,0,64,4.771,64,10.667s4.771,10.667,10.667,10.667h352c11.76,0,21.333,9.563,21.333,21.333v352
				c0,5.896,4.771,10.667,10.667,10.667c5.896,0,10.667-4.771,10.667-10.667v-352C469.333,19.146,450.198,0,426.667,0z" style="fill: white;"/>
			<path d="M294.896,151.854c-2.385-2.021-5.542-2.917-8.646-2.375l-128,21.333c-5.146,0.854-8.917,5.313-8.917,10.521v139.845
				c-3.315-0.714-6.848-1.178-10.667-1.178c-18.542,0-32,8.979-32,21.333s13.458,21.333,32,21.333s32-8.979,32-21.333V233.035
				l106.667-17.779v84.589c-3.315-0.714-6.848-1.178-10.667-1.178c-18.542,0-32,8.979-32,21.333c0,12.354,13.458,21.333,32,21.333
				s32-8.979,32-21.333V160C298.667,156.854,297.292,153.896,294.896,151.854z M277.333,193.632L170.667,211.41v-21.035
				l106.667-17.792V193.632z" style="fill: white;"/>
		</g>
	</g>
</g>
<g>
</g>
<g>
</g>
<g>
</g>
<g>
</g>
<g>
</g>
<g>
</g>
<g>
</g>
<g>
</g>
<g>
</g>
<g>
</g>
<g>
</g>
<g>
</g>
<g>
</g>
<g>
</g>
<g>
</g>
</svg>
